<svg width="16" height="16" viewBox="0 0 16 16" fill="none" xmlns="http://www.w3.org/2000/svg">
<g clip-path="url(#clip0_2554_598)">
<path d="M8.66683 3.99998C8.66683 3.63179 8.36835 3.33331 8.00016 3.33331C7.63197 3.33331 7.3335 3.63179 7.3335 3.99998V7.99998C7.3335 8.25249 7.47616 8.48334 7.70202 8.59626L10.3687 9.9296C10.698 10.0943 11.0985 9.96077 11.2631 9.63146C11.4278 9.30214 11.2943 8.90169 10.965 8.73703L8.66683 7.58796V3.99998Z" fill="#719F64"/>
<path fill-rule="evenodd" clip-rule="evenodd" d="M7.99984 0.666687C3.94975 0.666687 0.666504 3.94993 0.666504 8.00002C0.666504 12.0501 3.94975 15.3334 7.99984 15.3334C12.0499 15.3334 15.3332 12.0501 15.3332 8.00002C15.3332 3.94993 12.0499 0.666687 7.99984 0.666687ZM1.99984 8.00002C1.99984 4.68631 4.68613 2.00002 7.99984 2.00002C11.3135 2.00002 13.9998 4.68631 13.9998 8.00002C13.9998 11.3137 11.3135 14 7.99984 14C4.68613 14 1.99984 11.3137 1.99984 8.00002Z" fill="#719F64"/>
</g>
<defs>
<clipPath id="clip0_2554_598">
<rect width="16" height="16" fill="white"/>
</clipPath>
</defs>
</svg>
