<svg width="160" height="1" viewBox="0 0 160 1" fill="none" xmlns="http://www.w3.org/2000/svg">
<path fill-rule="evenodd" clip-rule="evenodd" d="M0 0.5C0 0.223858 0.223858 0 0.5 0H0.996875C1.27302 0 1.49687 0.223858 1.49687 0.5C1.49687 0.776142 1.27302 1 0.996875 1H0.5C0.223858 1 0 0.776142 0 0.5ZM4.47187 0.5C4.47187 0.223858 4.69573 0 4.97187 0H5.96562C6.24177 0 6.46562 0.223858 6.46562 0.5C6.46562 0.776142 6.24177 1 5.96562 1H4.97187C4.69573 1 4.47187 0.776142 4.47187 0.5ZM9.44062 0.5C9.44062 0.223858 9.66448 0 9.94062 0H10.9344C11.2105 0 11.4344 0.223858 11.4344 0.5C11.4344 0.776142 11.2105 1 10.9344 1H9.94062C9.66448 1 9.44062 0.776142 9.44062 0.5ZM14.4094 0.5C14.4094 0.223858 14.6332 0 14.9094 0H15.9031C16.1793 0 16.4031 0.223858 16.4031 0.5C16.4031 0.776142 16.1793 1 15.9031 1H14.9094C14.6332 1 14.4094 0.776142 14.4094 0.5ZM19.3781 0.5C19.3781 0.223858 19.602 0 19.8781 0H20.8719C21.148 0 21.3719 0.223858 21.3719 0.5C21.3719 0.776142 21.148 1 20.8719 1H19.8781C19.602 1 19.3781 0.776142 19.3781 0.5ZM24.3469 0.5C24.3469 0.223858 24.5707 0 24.8469 0H25.8406C26.1168 0 26.3406 0.223858 26.3406 0.5C26.3406 0.776142 26.1168 1 25.8406 1H24.8469C24.5707 1 24.3469 0.776142 24.3469 0.5ZM29.3156 0.5C29.3156 0.223858 29.5395 0 29.8156 0H30.8094C31.0855 0 31.3094 0.223858 31.3094 0.5C31.3094 0.776142 31.0855 1 30.8094 1H29.8156C29.5395 1 29.3156 0.776142 29.3156 0.5ZM34.2844 0.5C34.2844 0.223858 34.5082 0 34.7844 0H35.7781C36.0543 0 36.2781 0.223858 36.2781 0.5C36.2781 0.776142 36.0543 1 35.7781 1H34.7844C34.5082 1 34.2844 0.776142 34.2844 0.5ZM39.2531 0.5C39.2531 0.223858 39.477 0 39.7531 0H40.7469C41.023 0 41.2469 0.223858 41.2469 0.5C41.2469 0.776142 41.023 1 40.7469 1H39.7531C39.477 1 39.2531 0.776142 39.2531 0.5ZM44.2219 0.5C44.2219 0.223858 44.4457 0 44.7219 0H45.7156C45.9918 0 46.2156 0.223858 46.2156 0.5C46.2156 0.776142 45.9918 1 45.7156 1H44.7219C44.4457 1 44.2219 0.776142 44.2219 0.5ZM49.1906 0.5C49.1906 0.223858 49.4145 0 49.6906 0H50.6844C50.9605 0 51.1844 0.223858 51.1844 0.5C51.1844 0.776142 50.9605 1 50.6844 1H49.6906C49.4145 1 49.1906 0.776142 49.1906 0.5ZM54.1594 0.5C54.1594 0.223858 54.3832 0 54.6594 0H55.6531C55.9293 0 56.1531 0.223858 56.1531 0.5C56.1531 0.776142 55.9293 1 55.6531 1H54.6594C54.3832 1 54.1594 0.776142 54.1594 0.5ZM59.1281 0.5C59.1281 0.223858 59.352 0 59.6281 0H60.6219C60.898 0 61.1219 0.223858 61.1219 0.5C61.1219 0.776142 60.898 1 60.6219 1H59.6281C59.352 1 59.1281 0.776142 59.1281 0.5ZM64.0969 0.5C64.0969 0.223858 64.3207 0 64.5969 0H65.5906C65.8668 0 66.0906 0.223858 66.0906 0.5C66.0906 0.776142 65.8668 1 65.5906 1H64.5969C64.3207 1 64.0969 0.776142 64.0969 0.5ZM69.0656 0.5C69.0656 0.223858 69.2895 0 69.5656 0H70.5594C70.8355 0 71.0594 0.223858 71.0594 0.5C71.0594 0.776142 70.8355 1 70.5594 1H69.5656C69.2895 1 69.0656 0.776142 69.0656 0.5ZM74.0344 0.5C74.0344 0.223858 74.2582 0 74.5344 0H75.5281C75.8043 0 76.0281 0.223858 76.0281 0.5C76.0281 0.776142 75.8043 1 75.5281 1H74.5344C74.2582 1 74.0344 0.776142 74.0344 0.5ZM79.0031 0.5C79.0031 0.223858 79.227 0 79.5031 0H80.4969C80.773 0 80.9969 0.223858 80.9969 0.5C80.9969 0.776142 80.773 1 80.4969 1H79.5031C79.227 1 79.0031 0.776142 79.0031 0.5ZM83.9719 0.5C83.9719 0.223858 84.1957 0 84.4719 0H85.4656C85.7418 0 85.9656 0.223858 85.9656 0.5C85.9656 0.776142 85.7418 1 85.4656 1H84.4719C84.1957 1 83.9719 0.776142 83.9719 0.5ZM88.9406 0.5C88.9406 0.223858 89.1645 0 89.4406 0H90.4344C90.7105 0 90.9344 0.223858 90.9344 0.5C90.9344 0.776142 90.7105 1 90.4344 1H89.4406C89.1645 1 88.9406 0.776142 88.9406 0.5ZM93.9094 0.5C93.9094 0.223858 94.1332 0 94.4094 0H95.4031C95.6793 0 95.9031 0.223858 95.9031 0.5C95.9031 0.776142 95.6793 1 95.4031 1H94.4094C94.1332 1 93.9094 0.776142 93.9094 0.5ZM98.8781 0.5C98.8781 0.223858 99.102 0 99.3781 0H100.372C100.648 0 100.872 0.223858 100.872 0.5C100.872 0.776142 100.648 1 100.372 1H99.3781C99.102 1 98.8781 0.776142 98.8781 0.5ZM103.847 0.5C103.847 0.223858 104.071 0 104.347 0H105.341C105.617 0 105.841 0.223858 105.841 0.5C105.841 0.776142 105.617 1 105.341 1H104.347C104.071 1 103.847 0.776142 103.847 0.5ZM108.816 0.5C108.816 0.223858 109.039 0 109.316 0H110.309C110.586 0 110.809 0.223858 110.809 0.5C110.809 0.776142 110.586 1 110.309 1H109.316C109.039 1 108.816 0.776142 108.816 0.5ZM113.784 0.5C113.784 0.223858 114.008 0 114.284 0H115.278C115.554 0 115.778 0.223858 115.778 0.5C115.778 0.776142 115.554 1 115.278 1H114.284C114.008 1 113.784 0.776142 113.784 0.5ZM118.753 0.5C118.753 0.223858 118.977 0 119.253 0H120.247C120.523 0 120.747 0.223858 120.747 0.5C120.747 0.776142 120.523 1 120.247 1H119.253C118.977 1 118.753 0.776142 118.753 0.5ZM123.722 0.5C123.722 0.223858 123.946 0 124.222 0H125.216C125.492 0 125.716 0.223858 125.716 0.5C125.716 0.776142 125.492 1 125.216 1H124.222C123.946 1 123.722 0.776142 123.722 0.5ZM128.691 0.5C128.691 0.223858 128.914 0 129.191 0H130.184C130.461 0 130.684 0.223858 130.684 0.5C130.684 0.776142 130.461 1 130.184 1H129.191C128.914 1 128.691 0.776142 128.691 0.5ZM133.659 0.5C133.659 0.223858 133.883 0 134.159 0H135.153C135.429 0 135.653 0.223858 135.653 0.5C135.653 0.776142 135.429 1 135.153 1H134.159C133.883 1 133.659 0.776142 133.659 0.5ZM138.628 0.5C138.628 0.223858 138.852 0 139.128 0H140.122C140.398 0 140.622 0.223858 140.622 0.5C140.622 0.776142 140.398 1 140.122 1H139.128C138.852 1 138.628 0.776142 138.628 0.5ZM143.597 0.5C143.597 0.223858 143.821 0 144.097 0H145.091C145.367 0 145.591 0.223858 145.591 0.5C145.591 0.776142 145.367 1 145.091 1H144.097C143.821 1 143.597 0.776142 143.597 0.5ZM148.566 0.5C148.566 0.223858 148.789 0 149.066 0H150.059C150.336 0 150.559 0.223858 150.559 0.5C150.559 0.776142 150.336 1 150.059 1H149.066C148.789 1 148.566 0.776142 148.566 0.5ZM153.534 0.5C153.534 0.223858 153.758 0 154.034 0H155.028C155.304 0 155.528 0.223858 155.528 0.5C155.528 0.776142 155.304 1 155.028 1H154.034C153.758 1 153.534 0.776142 153.534 0.5ZM158.503 0.5C158.503 0.223858 158.727 0 159.003 0H159.5C159.776 0 160 0.223858 160 0.5C160 0.776142 159.776 1 159.5 1H159.003C158.727 1 158.503 0.776142 158.503 0.5Z" fill="#C1C7D0"/>
</svg>
